HIERARCHY
ROOT Hips
{
    OFFSET 0.000000 0.000000 0.000000
    CHANNELS 6 Xposition Yposition Zposition Zrotation Xrotation Yrotation
    JOINT Spine
    {
        OFFSET 0.000001 8.281923 0.000004
        CHANNELS 3 Zrotation Xrotation Yrotation
        JOINT Spine1
        {
            OFFSET -0.000004 23.973854 -0.000009
            CHANNELS 3 Zrotation Xrotation Yrotation
            JOINT Neck
            {
                OFFSET -0.000000 26.668362 0.000000
                CHANNELS 3 Zrotation Xrotation Yrotation
                JOINT Head
                {
                    OFFSET -0.000001 16.369625 2.035154
                    CHANNELS 3 Zrotation Xrotation Yrotation
                    End Site
                    {
                        OFFSET 0.000000 20.351660 0.000000
                    }
                }
            }
            JOINT LeftShoulder
            {
                OFFSET 4.036575 20.304850 -0.371899
                CHANNELS 3 Zrotation Xrotation Yrotation
                JOINT LeftArm
                {
                    OFFSET 12.502554 0.000004 0.000009
                    CHANNELS 3 Zrotation Xrotation Yrotation
                    JOINT LeftForeArm
                    {
                        OFFSET 31.806910 -0.000001 0.000006
                        CHANNELS 3 Zrotation Xrotation Yrotation
                        JOINT LeftHand
                        {
                            OFFSET 24.843231 -0.000000 0.000000
                            CHANNELS 3 Zrotation Xrotation Yrotation
                            JOINT LeftHandThumb1
                            {
                                OFFSET 2.126752 -2.416754 3.383463
                                CHANNELS 3 Zrotation Xrotation Yrotation
                                JOINT LeftHandThumb2
                                {
                                    OFFSET 3.212131 0.000003 0.000002
                                    CHANNELS 3 Zrotation Xrotation Yrotation
                                    JOINT LeftHandThumb3
                                    {
                                        OFFSET 2.745431 0.000005 0.000001
                                        CHANNELS 3 Zrotation Xrotation Yrotation
                                        End Site
                                        {
                                            OFFSET 2.793713 0.000000 0.000000
                                        }
                                    }
                                }
                            }
                            JOINT LeftHandIndex1
                            {
                                OFFSET 8.700339 -0.000006 3.383458
                                CHANNELS 3 Zrotation Xrotation Yrotation
                                JOINT LeftHandIndex2
                                {
                                    OFFSET 4.833529 0.000002 -0.000007
                                    CHANNELS 3 Zrotation Xrotation Yrotation
                                    JOINT LeftHandIndex3
                                    {
                                        OFFSET 2.416755 0.000004 0.000003
                                        CHANNELS 3 Zrotation Xrotation Yrotation
                                        End Site
                                        {
                                            OFFSET 2.459254 0.000000 0.000000
                                        }
                                    }
                                }
                            }
                            JOINT LeftHandMiddle1
                            {
                                OFFSET 8.700336 -0.000001 1.121373
                                CHANNELS 3 Zrotation Xrotation Yrotation
                                JOINT LeftHandMiddle2
                                {
                                    OFFSET 5.316878 -0.000005 -0.000006
                                    CHANNELS 3 Zrotation Xrotation Yrotation
                                    JOINT LeftHandMiddle3
                                    {
                                        OFFSET 2.900107 0.000006 0.000005
                                        CHANNELS 3 Zrotation Xrotation Yrotation
                                        End Site
                                        {
                                            OFFSET 2.951103 0.000000 0.000000
                                        }
                                    }
                                }
                            }
                            JOINT LeftHandRing1
                            {
                                OFFSET 8.216981 -0.000006 -1.121378
                                CHANNELS 3 Zrotation Xrotation Yrotation
                                JOINT LeftHandRing2
                                {
                                    OFFSET 4.833529 0.000003 -0.000006
                                    CHANNELS 3 Zrotation Xrotation Yrotation
                                    JOINT LeftHandRing3
                                    {
                                        OFFSET 2.416755 0.000003 0.000004
                                        CHANNELS 3 Zrotation Xrotation Yrotation
                                        End Site
                                        {
                                            OFFSET 2.459254 0.000000 0.000000
                                        }
                                    }
                                }
                            }
                            JOINT LeftHandPinky1
                            {
                                OFFSET 7.733627 -0.000004 -3.383463
                                CHANNELS 3 Zrotation Xrotation Yrotation
                                JOINT LeftHandPinky2
                                {
                                    OFFSET 3.866807 -0.000000 0.000006
                                    CHANNELS 3 Zrotation Xrotation Yrotation
                                    JOINT LeftHandPinky3
                                    {
                                        OFFSET 1.933403 -0.000000 0.000003
                                        CHANNELS 3 Zrotation Xrotation Yrotation
                                        End Site
                                        {
                                            OFFSET 1.967405 0.000000 0.000000
                                        }
                                    }
                                }
                            }
                        }
                    }
                }
            }
            JOINT RightShoulder
            {
                OFFSET -4.036573 20.304850 -0.371916
                CHANNELS 3 Zrotation Xrotation Yrotation
                JOINT RightArm
                {
                    OFFSET -12.502546 0.000003 0.000011
                    CHANNELS 3 Zrotation Xrotation Yrotation
                    JOINT RightForeArm
                    {
                        OFFSET -31.806908 0.000000 0.000003
                        CHANNELS 3 Zrotation Xrotation Yrotation
                        JOINT RightHand
                        {
                            OFFSET -24.843231 0.000000 -0.000001
                            CHANNELS 3 Zrotation Xrotation Yrotation
                            JOINT RightHandThumb1
                            {
                                OFFSET -2.126749 -2.416758 3.383464
                                CHANNELS 3 Zrotation Xrotation Yrotation
                                JOINT RightHandThumb2
                                {
                                    OFFSET -3.212134 0.000004 -0.000001
                                    CHANNELS 3 Zrotation Xrotation Yrotation
                                    JOINT RightHandThumb3
                                    {
                                        OFFSET -2.745440 -0.000003 0.000001
                                        CHANNELS 3 Zrotation Xrotation Yrotation
                                        End Site
                                        {
                                            OFFSET -2.793713 0.000000 0.000000
                                        }
                                    }
                                }
                            }
                            JOINT RightHandIndex1
                            {
                                OFFSET -8.700320 -0.000001 3.383456
                                CHANNELS 3 Zrotation Xrotation Yrotation
                                JOINT RightHandIndex2
                                {
                                    OFFSET -4.833521 0.000008 0.000009
                                    CHANNELS 3 Zrotation Xrotation Yrotation
                                    JOINT RightHandIndex3
                                    {
                                        OFFSET -2.416752 -0.000000 -0.000003
                                        CHANNELS 3 Zrotation Xrotation Yrotation
                                        End Site
                                        {
                                            OFFSET -2.459254 0.000000 0.000000
                                        }
                                    }
                                }
                            }
                            JOINT RightHandMiddle1
                            {
                                OFFSET -8.700326 -0.000004 1.121370
                                CHANNELS 3 Zrotation Xrotation Yrotation
                                JOINT RightHandMiddle2
                                {
                                    OFFSET -5.316868 -0.000003 -0.000004
                                    CHANNELS 3 Zrotation Xrotation Yrotation
                                    JOINT RightHandMiddle3
                                    {
                                        OFFSET -2.900111 0.000000 0.000001
                                        CHANNELS 3 Zrotation Xrotation Yrotation
                                        End Site
                                        {
                                            OFFSET -2.951103 0.000000 0.000000
                                        }
                                    }
                                }
                            }
                            JOINT RightHandRing1
                            {
                                OFFSET -8.216986 0.000000 -1.121368
                                CHANNELS 3 Zrotation Xrotation Yrotation
                                JOINT RightHandRing2
                                {
                                    OFFSET -4.833525 0.000002 0.000007
                                    CHANNELS 3 Zrotation Xrotation Yrotation
                                    JOINT RightHandRing3
                                    {
                                        OFFSET -2.416752 0.000000 -0.000003
                                        CHANNELS 3 Zrotation Xrotation Yrotation
                                        End Site
                                        {
                                            OFFSET -2.459254 0.000000 0.000000
                                        }
                                    }
                                }
                            }
                            JOINT RightHandPinky1
                            {
                                OFFSET -7.733630 0.000002 -3.383458
                                CHANNELS 3 Zrotation Xrotation Yrotation
                                JOINT RightHandPinky2
                                {
                                    OFFSET -3.866810 -0.000001 -0.000004
                                    CHANNELS 3 Zrotation Xrotation Yrotation
                                    JOINT RightHandPinky3
                                    {
                                        OFFSET -1.933413 0.000001 0.000007
                                        CHANNELS 3 Zrotation Xrotation Yrotation
                                        End Site
                                        {
                                            OFFSET -1.967405 0.000000 0.000000
                                        }
                                    }
                                }
                            }
                        }
                    }
                }
            }
        }
    }
    JOINT LeftUpLeg
    {
        OFFSET 10.175824 -0.000003 -0.000004
        CHANNELS 3 Zrotation Xrotation Yrotation
        JOINT LeftLeg
        {
            OFFSET 0.000003 -42.882950 0.000007
            CHANNELS 3 Zrotation Xrotation Yrotation
            JOINT LeftFoot
            {
                OFFSET 0.000001 -39.006771 0.000001
                CHANNELS 3 Zrotation Xrotation Yrotation
                JOINT LeftToeBase
                {
                    OFFSET -0.000003 -6.614287 15.263732
                    CHANNELS 3 Zrotation Xrotation Yrotation
                    End Site
                    {
                        OFFSET 0.000000 0.000000 4.070332
                    }
                }
            }
        }
    }
    JOINT RightUpLeg
    {
        OFFSET -10.175825 0.000003 0.000004
        CHANNELS 3 Zrotation Xrotation Yrotation
        JOINT RightLeg
        {
            OFFSET 0.000000 -42.882950 0.000001
            CHANNELS 3 Zrotation Xrotation Yrotation
            JOINT RightFoot
            {
                OFFSET 0.000001 -39.006771 0.000001
                CHANNELS 3 Zrotation Xrotation Yrotation
                JOINT RightToeBase
                {
                    OFFSET -0.000001 -6.614287 15.263741
                    CHANNELS 3 Zrotation Xrotation Yrotation
                    End Site
                    {
                        OFFSET 0.000000 0.000000 4.070332
                    }
                }
            }
        }
    }
}
MOTION
Frames:    5
Frame Time:    0.002778
2.579653    88.591370    229.191162    4.538831    -1.098141    -4.332003    0.451582    6.739539    4.437155    2.257893    6.734564    4.225235    5.192624    0.605598    -3.409876    5.192633    0.605607    -3.409877    -1.881597    -1.084507    -0.744735    -55.389690    6.050733    -15.784117    -10.897710    2.068366    -131.560974    17.365788    6.781564    20.985556    47.448219    38.866447    -34.355030    -35.000004    -0.000004    -0.000005    -0.000000    0.000000    -0.000000    0.000023    10.000017    0.000012    -0.000000    0.000000    -0.000000    -0.000000    0.000000    -0.000000    -0.000000    0.000000    -0.000000    -0.000000    0.000000    -0.000000    -0.000000    0.000000    -0.000000    -0.000000    0.000000    -0.000000    -0.000000    0.000000    -0.000000    -0.000000    0.000000    -0.000000    0.000004    -9.999996    0.000002    -0.000000    0.000000    -0.000000    -0.000000    0.000000    -0.000000    -2.035127    -2.111677    5.396758    41.668797    -16.204161    24.580345    -28.523785    -18.320673    89.112511    -9.350468    8.903450    -41.900330    -47.448219    38.866428    34.355038    35.000004    -0.000003    0.000001    -0.000000    0.000000    -0.000000    -0.000001    10.000004    -0.000004    -0.000000    0.000000    -0.000000    -0.000000    0.000000    -0.000000    -0.000000    0.000000    -0.000000    -0.000000    0.000000    -0.000000    -0.000000    0.000000    -0.000000    -0.000000    0.000000    -0.000000    -0.000000    0.000000    -0.000000    -0.000000    0.000000    -0.000000    0.000001    -10.000010    0.000011    -0.000000    0.000000    -0.000000    -0.000000    0.000000    -0.000000    5.070027    -17.372770    -3.841364    0.000003    47.103374    -0.000002    -13.719847    -30.494101    6.473269    -0.000000    -1.314958    0.000001    -20.698669    -20.878162    -5.269455    -0.000000    48.632267    0.000001    19.609728    -25.319088    -14.143322    0.000000    -0.056890    0.000001    
2.608249    88.502831    229.171326    4.487012    -1.168430    -4.414906    0.446981    6.796192    4.430583    2.234890    6.791274    4.219063    5.185490    0.613636    -3.330288    5.185500    0.613640    -3.330290    -1.969289    -1.054358    -0.785808    -55.340656    6.102615    -15.800406    -11.056358    2.184670    -131.448792    17.481457    6.802085    20.913485    47.448235    38.866440    -34.355049    -35.000000    0.000003    0.000004    -0.000000    0.000000    -0.000000    0.000011    10.000012    -0.000008    -0.000000    0.000000    -0.000000    -0.000000    0.000000    -0.000000    -0.000000    0.000000    -0.000000    -0.000000    0.000000    -0.000000    -0.000000    0.000000    -0.000000    -0.000000    0.000000    -0.000000    -0.000000    0.000000    -0.000000    -0.000000    0.000000    -0.000000    0.000004    -9.999996    0.000009    -0.000000    0.000000    -0.000000    -0.000000    0.000000    -0.000000    -2.024230    -2.046240    5.428966    41.692696    -15.962521    24.572077    -28.397297    -18.291773    89.150558    -9.334542    8.864446    -41.827126    -47.448196    38.866440    34.355030    34.999989    0.000001    0.000004    -0.000000    0.000000    -0.000000    -0.000001    9.999994    0.000008    -0.000000    0.000000    -0.000000    -0.000000    0.000000    -0.000000    -0.000000    0.000000    -0.000000    -0.000000    0.000000    -0.000000    -0.000000    0.000000    -0.000000    -0.000000    0.000000    -0.000000    -0.000000    0.000000    -0.000000    -0.000000    0.000000    -0.000000    0.000001    -10.000004    0.000006    -0.000000    0.000000    -0.000000    -0.000000    0.000000    -0.000000    5.097691    -17.465000    -3.821400    0.000000    47.467506    -0.000001    -13.690886    -30.675398    6.491106    -0.000000    -1.324490    0.000000    -20.703653    -20.984358    -5.287605    0.000000    48.886806    0.000003    19.603769    -25.348183    -13.996844    0.000000    -0.093531    -0.000002    
2.633380    88.413940    229.152725    4.435073    -1.236858    -4.486038    0.441127    6.851200    4.415295    2.205622    6.846372    4.204863    5.185361    0.625530    -3.260558    5.185361    0.625530    -3.260558    -2.065895    -1.029592    -0.814927    -55.287697    6.148209    -15.823844    -11.207255    2.281213    -131.322983    17.613476    6.816507    20.806084    47.448208    38.866428    -34.355038    -35.000004    -0.000002    -0.000001    -0.000000    0.000000    -0.000000    -0.000003    10.000001    -0.000010    -0.000000    0.000000    -0.000000    -0.000000    0.000000    -0.000000    -0.000000    0.000000    -0.000000    -0.000000    0.000000    -0.000000    -0.000000    0.000000    -0.000000    -0.000000    0.000000    -0.000000    -0.000000    0.000000    -0.000000    -0.000000    0.000000    -0.000000    -0.000004    -9.999997    -0.000007    -0.000000    0.000000    -0.000000    -0.000000    0.000000    -0.000000    -2.006432    -1.971178    5.462274    41.723553    -15.695376    24.560917    -28.217846    -18.281149    89.209198    -9.296771    8.802410    -41.746620    -47.448223    38.866440    34.355049    35.000004    -0.000004    0.000001    -0.000000    0.000000    -0.000000    -0.000001    10.000008    -0.000007    -0.000000    0.000000    -0.000000    -0.000000    0.000000    -0.000000    -0.000000    0.000000    -0.000000    -0.000000    0.000000    -0.000000    -0.000000    0.000000    -0.000000    -0.000000    0.000000    -0.000000    -0.000000    0.000000    -0.000000    -0.000000    0.000000    -0.000000    -0.000001    -9.999990    -0.000009    -0.000000    0.000000    -0.000000    -0.000000    0.000000    -0.000000    5.126053    -17.561338    -3.806768    0.000003    47.831486    -0.000002    -13.661281    -30.851854    6.507093    0.000000    -1.322183    -0.000000    -20.700865    -21.083241    -5.296599    0.000001    49.136612    0.000001    19.605577    -25.409842    -13.876377    0.000000    -0.125570    -0.000007    
2.656285    88.326172    229.133270    4.380814    -1.299622    -4.540060    0.434658    6.901278    4.393628    2.173273    6.896560    4.184774    5.203387    0.634316    -3.183219    5.203387    0.634315    -3.183218    -2.147045    -0.989189    -0.865049    -55.231174    6.202550    -15.842669    -11.345756    2.383672    -131.212189    17.753798    6.842561    20.721972    47.448204    38.866421    -34.355030    -34.999996    0.000003    0.000005    -0.000000    0.000000    -0.000000    -0.000007    9.999996    -0.000003    -0.000000    0.000000    -0.000000    -0.000000    0.000000    -0.000000    -0.000000    0.000000    -0.000000    -0.000000    0.000000    -0.000000    -0.000000    0.000000    -0.000000    -0.000000    0.000000    -0.000000    -0.000000    0.000000    -0.000000    -0.000000    0.000000    -0.000000    -0.000004    -9.999999    -0.000005    -0.000000    0.000000    -0.000000    -0.000000    0.000000    -0.000000    -1.972635    -1.911818    5.493010    41.771912    -15.445769    24.551546    -28.121325    -18.259315    89.199867    -9.276577    8.751068    -41.643646    -47.448212    38.866428    34.355038    34.999992    0.000001    -0.000003    -0.000000    0.000000    -0.000000    -0.000000    10.000001    0.000004    -0.000000    0.000000    -0.000000    -0.000000    0.000000    -0.000000    -0.000000    0.000000    -0.000000    -0.000000    0.000000    -0.000000    -0.000000    0.000000    -0.000000    -0.000000    0.000000    -0.000000    -0.000000    0.000000    -0.000000    -0.000000    0.000000    -0.000000    0.000005    -9.999998    0.000001    -0.000000    0.000000    -0.000000    -0.000000    0.000000    -0.000000    5.157724    -17.660942    -3.799093    -0.000001    48.186676    0.000002    -13.638504    -31.032858    6.513124    0.000000    -1.333250    -0.000001    -20.690561    -21.167891    -5.303405    0.000001    49.375809    0.000000    19.618778    -25.490950    -13.764002    0.000000    -0.124387    0.000006    
2.687159    88.233948    229.110046    4.323121    -1.366770    -4.605091    0.431347    6.956014    4.374454    2.156718    6.951327    4.165552    5.207148    0.645584    -3.102955    5.207147    0.645578    -3.102955    -2.239160    -0.959573    -0.901731    -55.194347    6.267729    -15.860703    -11.506266    2.493462    -131.097778    17.843248    6.845202    20.633801    47.448212    38.866432    -34.355038    -34.999996    -0.000001    -0.000000    -0.000000    0.000000    -0.000000    0.000000    10.000010    -0.000000    -0.000000    0.000000    -0.000000    -0.000000    0.000000    -0.000000    -0.000000    0.000000    -0.000000    -0.000000    0.000000    -0.000000    -0.000000    0.000000    -0.000000    -0.000000    0.000000    -0.000000    -0.000000    0.000000    -0.000000    -0.000000    0.000000    -0.000000    0.000000    -9.999998    0.000002    -0.000000    0.000000    -0.000000    -0.000000    0.000000    -0.000000    -1.947601    -1.836779    5.523045    41.805038    -15.174995    24.550423    -27.989628    -18.231384    89.222855    -9.240966    8.682391    -41.530785    -47.448212    38.866440    34.355030    34.999996    -0.000000    -0.000001    -0.000000    0.000000    -0.000000    0.000001    10.000010    -0.000006    -0.000000    0.000000    -0.000000    -0.000000    0.000000    -0.000000    -0.000000    0.000000    -0.000000    -0.000000    0.000000    -0.000000    -0.000000    0.000000    -0.000000    -0.000000    0.000000    -0.000000    -0.000000    0.000000    -0.000000    -0.000000    0.000000    -0.000000    -0.000001    -9.999993    -0.000007    -0.000000    0.000000    -0.000000    -0.000000    0.000000    -0.000000    5.190389    -17.760410    -3.783773    0.000000    48.549736    -0.000001    -13.616925    -31.216242    6.512420    -0.000000    -1.340661    0.000001    -20.687805    -21.261030    -5.312077    -0.000002    49.621708    0.000000    19.634186    -25.552944    -13.636183    0.000000    -0.139571    0.000004    
